{
   "accessors" : [
      {
         "bufferView" : 2,
         "byteOffset" : 0,
         "componentType" : 5126,
         "count" : 19992,
         "max" : [ 1, 1, 1, 1 ],
         "min" : [ 0, 0.006584956776350737, 0.006584956776350737, 1 ],
         "name" : "accessor_color_m0-PolyPaper21_-115740",
         "type" : "VEC4"
      },
      {
         "bufferView" : 2,
         "byteOffset" : 319872,
         "componentType" : 5126,
         "count" : 7344,
         "max" : [ 1, 0.6120656132698059, 0.2508402466773987, 1 ],
         "min" : [ 0.006584956776350737, 0.006584956776350737, 0.006584956776350737, 1 ],
         "name" : "accessor_color_m1-PolyPaper18_-115746",
         "type" : "VEC4"
      },
      {
         "bufferView" : 0,
         "byteOffset" : 0,
         "componentType" : 5123,
         "count" : 31068,
         "max" : [ 19991 ],
         "min" : [ 0 ],
         "name" : "accessor_indices_0_m0-PolyPaper21_-115740",
         "type" : "SCALAR"
      },
      {
         "bufferView" : 0,
         "byteOffset" : 62136,
         "componentType" : 5123,
         "count" : 10992,
         "max" : [ 7343 ],
         "min" : [ 0 ],
         "name" : "accessor_indices_0_m1-PolyPaper18_-115746",
         "type" : "SCALAR"
      },
      {
         "bufferView" : 1,
         "byteOffset" : 239904,
         "componentType" : 5126,
         "count" : 19992,
         "max" : [ 0.9991981, 0.998067, 0.9978735 ],
         "min" : [ -0.9991981, -0.9980671, -0.9978735 ],
         "name" : "accessor_normal_m0-PolyPaper21_-115740",
         "type" : "VEC3"
      },
      {
         "bufferView" : 1,
         "byteOffset" : 567936,
         "componentType" : 5126,
         "count" : 7344,
         "max" : [ 0.9972249, 0.9947023, 0.9959361 ],
         "min" : [ -0.9972249, -0.9947005, -0.9959359 ],
         "name" : "accessor_normal_m1-PolyPaper18_-115746",
         "type" : "VEC3"
      },
      {
         "bufferView" : 1,
         "byteOffset" : 0,
         "componentType" : 5126,
         "count" : 19992,
         "max" : [ 0.3834911, 2.331324, -0.08512963 ],
         "min" : [ -0.06473187, 1.946269, -0.5710592 ],
         "name" : "accessor_position_m0-PolyPaper21_-115740",
         "type" : "VEC3"
      },
      {
         "bufferView" : 1,
         "byteOffset" : 479808,
         "componentType" : 5126,
         "count" : 7344,
         "max" : [ 0.2850309, 2.243707, -0.1699249 ],
         "min" : [ 0.01428904, 1.956572, -0.4426077 ],
         "name" : "accessor_position_m1-PolyPaper18_-115746",
         "type" : "VEC3"
      }
   ],
   "asset" : {
      "copyright" : "Unknown",
      "generator" : "glTF 1-to-2 Upgrader for Google Blocks",
      "version" : "2.0"
   },
   "bufferViews" : [
      {
         "buffer" : 0,
         "byteLength" : 84120,
         "byteOffset" : 0,
         "name" : "ushortBufferView",
         "target" : 34963
      },
      {
         "buffer" : 0,
         "byteLength" : 656064,
         "byteOffset" : 84120,
         "byteStride" : 12,
         "name" : "vec3BufferView",
         "target" : 34962
      },
      {
         "buffer" : 0,
         "byteLength" : 437376,
         "byteOffset" : 740184,
         "byteStride" : 16,
         "name" : "vec4BufferView",
         "target" : 34962
      }
   ],
   "buffers" : [
      {
         "byteLength" : 1177560,
         "name" : "model",
         "uri" : "model.bin"
      }
   ],
   "materials" : [
      {
         "alphaMode" : "OPAQUE",
         "doubleSided" : false,
         "name" : "BlocksPaper",
         "pbrMetallicRoughness" : {
            "baseColorFactor" : [ 1, 1, 1, 1 ],
            "metallicFactor" : 0,
            "roughnessFactor" : 0.6
         }
      },
      {
         "alphaMode" : "BLEND",
         "doubleSided" : false,
         "name" : "BlocksGlass",
         "pbrMetallicRoughness" : {
            "baseColorFactor" : [ 0.2, 0.2, 1, 0.3 ],
            "metallicFactor" : 1,
            "roughnessFactor" : 0.4
         }
      },
      {
         "alphaMode" : "OPAQUE",
         "doubleSided" : true,
         "name" : "BlocksGem",
         "pbrMetallicRoughness" : {
            "baseColorFactor" : [ 1, 0.4, 1, 1 ],
            "metallicFactor" : 0,
            "roughnessFactor" : 0.1
         }
      }
   ],
   "meshes" : [
      {
         "name" : "mesh_m0-PolyPaper21_-115740",
         "primitives" : [
            {
               "attributes" : {
                  "COLOR_0" : 0,
                  "NORMAL" : 4,
                  "POSITION" : 6
               },
               "indices" : 2,
               "material" : 0,
               "mode" : 4
            }
         ]
      },
      {
         "name" : "mesh_m1-PolyPaper18_-115746",
         "primitives" : [
            {
               "attributes" : {
                  "COLOR_0" : 1,
                  "NORMAL" : 5,
                  "POSITION" : 7
               },
               "indices" : 3,
               "material" : 0,
               "mode" : 4
            }
         ]
      }
   ],
   "nodes" : [
      {
         "mesh" : 0,
         "name" : "node_MeshObject-1414406144-PolyPaper21"
      },
      {
         "mesh" : 1,
         "name" : "node_MeshObject-842327040-PolyPaper18"
      }
   ],
   "scene" : 0,
   "scenes" : [
      {
         "extras" : {},
         "name" : "defaultScene",
         "nodes" : [ 0, 1 ]
      }
   ]
}
